# xmcd
# Copyright (C) 1995-1998 Ti Kan
#
# Track frame offsets:
#       150
#       15000
#       29076
#       41974
#       57045
#       74663
#       93959
#       107279
#       122019
#       132416
#       138781
#       150405
#       162694
#       196050
#
# Disc length: 3599 seconds
#
# Revision: 0
# Processed by: cddbd v1.5.2PL0 Copyright (c) Steve Scherf et al.
# Submitted via: CD-Import v1.0
#
DISCID=b50e0d0e
DTITLE=Emily Loizeau - L'autre Bout Du Monde
DYEAR=05
DGENRE=
TTITLE0=L'autre Bout Du Monde
TTITLE1=Boby Chéri
TTITLE2=Voilà Pourquoi
TTITLE3=Je Ne Sais Pas Choisir
TTITLE4=Jasseron
TTITLE5=I'm Alive
TTITLE6=Sur La Route
TTITLE7=Jalouse
TTITLE8=Comment Dire
TTITLE9=Zool
TTITLE10=Leaving You
TTITLE11=London Town
TTITLE12=L'âge D'or
TTITLE13=Data Track
EXTD=
EXTT0=
EXTT1=
EXTT2=
EXTT3=
EXTT4=
EXTT5=
EXTT6=
EXTT7=
EXTT8=
EXTT9=
EXTT10=
EXTT11=
EXTT12=
EXTT13=
PLAYORDER=
